# xmcd
#
# Track frame offsets:
#	150
#	11567
#	24175
#	35040
#	47507
#	63295
#	74580
#	87587
#	100772
#	110387
#	119100
#	131955
#	143207
#	154717
#	172170
#	182865
#
# Disc length: 2564 seconds
# Revision: 3
# Processed by: cddbd v1.5.2PL0 Copyright (c) Steve Scherf et al.
# Submitted via: dBpowerAMP V12.0
#
DISCID=e80a0210
DTITLE=Hank Thompson - The Best Of Hank Thompson 1966-1979
DYEAR=1996
DGENRE=Country
TTITLE0=Where Is The Circus
TTITLE1=He'S Got A Way With Women
TTITLE2=On Tap, In The Can, Or In The Bottle
TTITLE3=Next Time I Fall In Love (I Won't)
TTITLE4=The Mark Of A Heel
TTITLE5=Smoky The Bar
TTITLE6=I've Come Awful Close
TTITLE7=Most Of All
TTITLE8=I See Them Everywhere
TTITLE9=Oklahoma Home Brew
TTITLE10=Wildwood Flower
TTITLE11=Who Left The Door To Heaven Open
TTITLE12=The Older The Violin, The Sweeter The Music
TTITLE13=Mama Don't 'Low
TTITLE14=I Hear The South Callin' Me
TTITLE15=The King Of Western Swing
EXTD=
EXTT0=
EXTT1=
EXTT2=
EXTT3=
EXTT4=
EXTT5=
EXTT6=
EXTT7=
EXTT8=
EXTT9=
EXTT10=
EXTT11=
EXTT12=
EXTT13=
EXTT14=
EXTT15=
PLAYORDER=
